<svg width="500" height="128" viewBox="0 0 500 128" fill="none" xmlns="http://www.w3.org/2000/svg">
<rect width="500" height="128" fill="white"/>
<path d="M222.991 91H221.91V78.2031H222.991V91ZM227.86 79.0557V81.4902H229.829V82.3516H227.86V88.6885C227.86 89.2158 227.954 89.6084 228.142 89.8662C228.335 90.124 228.654 90.2529 229.1 90.2529C229.275 90.2529 229.56 90.2236 229.952 90.165L229.996 91.0264C229.721 91.126 229.346 91.1758 228.871 91.1758C228.15 91.1758 227.626 90.9678 227.298 90.5518C226.97 90.1299 226.806 89.5117 226.806 88.6973V82.3516H225.057V81.4902H226.806V79.0557H227.86ZM235.691 91.1758C234.883 91.1758 234.15 90.9766 233.494 90.5781C232.844 90.1797 232.337 89.626 231.974 88.917C231.61 88.2021 231.429 87.4023 231.429 86.5176V86.1396C231.429 85.2256 231.604 84.4023 231.956 83.6699C232.313 82.9375 232.809 82.3633 233.441 81.9473C234.074 81.5254 234.76 81.3145 235.498 81.3145C236.652 81.3145 237.566 81.71 238.24 82.501C238.92 83.2861 239.26 84.3613 239.26 85.7266V86.3154H232.475V86.5176C232.475 87.5957 232.782 88.4951 233.397 89.2158C234.019 89.9307 234.798 90.2881 235.735 90.2881C236.298 90.2881 236.793 90.1855 237.221 89.9805C237.654 89.7754 238.047 89.4473 238.398 88.9961L239.058 89.4971C238.284 90.6162 237.162 91.1758 235.691 91.1758ZM235.498 82.2109C234.707 82.2109 234.039 82.501 233.494 83.0811C232.955 83.6611 232.627 84.4404 232.51 85.4189H238.214V85.3047C238.185 84.3906 237.924 83.6465 237.432 83.0723C236.939 82.498 236.295 82.2109 235.498 82.2109ZM242.266 81.4902L242.301 83.0371C242.652 82.4629 243.092 82.0322 243.619 81.7451C244.146 81.458 244.732 81.3145 245.377 81.3145C246.877 81.3145 247.829 81.9297 248.233 83.1602C248.573 82.5684 249.027 82.1143 249.596 81.7979C250.164 81.4756 250.791 81.3145 251.477 81.3145C253.516 81.3145 254.556 82.4277 254.597 84.6543V91H253.542V84.7334C253.536 83.8838 253.352 83.2539 252.988 82.8438C252.631 82.4336 252.045 82.2285 251.23 82.2285C250.475 82.2402 249.836 82.4863 249.314 82.9668C248.793 83.4414 248.503 84.0215 248.444 84.707V91H247.39V84.6543C247.384 83.8398 247.19 83.2334 246.81 82.835C246.435 82.4307 245.854 82.2285 245.069 82.2285C244.407 82.2285 243.839 82.4189 243.364 82.7998C242.89 83.1748 242.538 83.7344 242.31 84.4785V91H241.255V81.4902H242.266ZM258.947 78.2031L263.667 89.4971L268.404 78.2031H269.846V91H268.765V85.4277L268.853 79.7148L264.089 91H263.254L258.508 79.7588L258.596 85.3926V91H257.515V78.2031H258.947ZM272.263 86.1045C272.263 85.1904 272.438 84.3672 272.79 83.6348C273.147 82.9023 273.648 82.334 274.293 81.9297C274.943 81.5195 275.679 81.3145 276.499 81.3145C277.765 81.3145 278.79 81.7598 279.575 82.6504C280.36 83.5352 280.753 84.71 280.753 86.1748V86.3945C280.753 87.3145 280.574 88.1436 280.217 88.8818C279.865 89.6143 279.367 90.1797 278.723 90.5781C278.078 90.9766 277.343 91.1758 276.517 91.1758C275.257 91.1758 274.231 90.7334 273.44 89.8486C272.655 88.958 272.263 87.7803 272.263 86.3154V86.1045ZM273.317 86.3945C273.317 87.5312 273.61 88.4658 274.196 89.1982C274.788 89.9248 275.562 90.2881 276.517 90.2881C277.466 90.2881 278.233 89.9248 278.819 89.1982C279.411 88.4658 279.707 87.502 279.707 86.3066V86.1045C279.707 85.3779 279.572 84.7129 279.303 84.1094C279.033 83.5059 278.655 83.04 278.169 82.7119C277.683 82.3779 277.126 82.2109 276.499 82.2109C275.562 82.2109 274.797 82.5801 274.205 83.3184C273.613 84.0508 273.317 85.0117 273.317 86.2012V86.3945ZM282.511 86.1572C282.511 84.6807 282.839 83.5059 283.495 82.6328C284.157 81.7539 285.054 81.3145 286.185 81.3145C287.468 81.3145 288.446 81.8213 289.12 82.835V77.5H290.166V91H289.182L289.138 89.7344C288.464 90.6953 287.474 91.1758 286.167 91.1758C285.071 91.1758 284.187 90.7363 283.513 89.8574C282.845 88.9727 282.511 87.7803 282.511 86.2803V86.1572ZM283.574 86.3418C283.574 87.5547 283.817 88.5127 284.304 89.2158C284.79 89.9131 285.476 90.2617 286.36 90.2617C287.655 90.2617 288.575 89.6904 289.12 88.5479V84.083C288.575 82.8467 287.661 82.2285 286.378 82.2285C285.493 82.2285 284.805 82.5771 284.312 83.2744C283.82 83.9658 283.574 84.9883 283.574 86.3418ZM298.63 88.583C298.63 88.0615 298.419 87.6426 297.997 87.3262C297.581 87.0098 296.951 86.7637 296.107 86.5879C295.264 86.4062 294.607 86.2012 294.139 85.9727C293.676 85.7383 293.33 85.4541 293.102 85.1201C292.879 84.7861 292.768 84.3818 292.768 83.9072C292.768 83.1572 293.081 82.5391 293.708 82.0527C294.335 81.5605 295.138 81.3145 296.116 81.3145C297.177 81.3145 298.026 81.5781 298.665 82.1055C299.31 82.627 299.632 83.3096 299.632 84.1533H298.577C298.577 83.5967 298.343 83.1338 297.874 82.7646C297.411 82.3955 296.825 82.2109 296.116 82.2109C295.425 82.2109 294.868 82.3662 294.446 82.6768C294.03 82.9814 293.822 83.3799 293.822 83.8721C293.822 84.3467 293.995 84.7158 294.341 84.9795C294.692 85.2373 295.328 85.4746 296.248 85.6914C297.174 85.9082 297.865 86.1396 298.322 86.3857C298.785 86.6318 299.128 86.9277 299.351 87.2734C299.573 87.6191 299.685 88.0381 299.685 88.5303C299.685 89.333 299.359 89.9746 298.709 90.4551C298.064 90.9355 297.221 91.1758 296.178 91.1758C295.07 91.1758 294.171 90.9092 293.479 90.376C292.794 89.8369 292.451 89.1572 292.451 88.3369H293.506C293.547 88.9521 293.805 89.4326 294.279 89.7783C294.76 90.1182 295.393 90.2881 296.178 90.2881C296.91 90.2881 297.502 90.127 297.953 89.8047C298.404 89.4824 298.63 89.0752 298.63 88.583ZM305.327 85.7969H301.117V84.9092H305.327V85.7969ZM314.362 87.4141H308.553L307.234 91H306.101L310.943 78.2031H311.972L316.814 91H315.689L314.362 87.4141ZM308.887 86.4912H314.02L311.453 79.5215L308.887 86.4912ZM318.036 86.1572C318.036 84.6807 318.364 83.5059 319.021 82.6328C319.683 81.7539 320.579 81.3145 321.71 81.3145C322.993 81.3145 323.972 81.8213 324.646 82.835V77.5H325.691V91H324.707L324.663 89.7344C323.989 90.6953 322.999 91.1758 321.692 91.1758C320.597 91.1758 319.712 90.7363 319.038 89.8574C318.37 88.9727 318.036 87.7803 318.036 86.2803V86.1572ZM319.1 86.3418C319.1 87.5547 319.343 88.5127 319.829 89.2158C320.315 89.9131 321.001 90.2617 321.886 90.2617C323.181 90.2617 324.101 89.6904 324.646 88.5479V84.083C324.101 82.8467 323.187 82.2285 321.903 82.2285C321.019 82.2285 320.33 82.5771 319.838 83.2744C319.346 83.9658 319.1 84.9883 319.1 86.3418ZM328.038 86.1572C328.038 84.6807 328.366 83.5059 329.022 82.6328C329.685 81.7539 330.581 81.3145 331.712 81.3145C332.995 81.3145 333.974 81.8213 334.647 82.835V77.5H335.693V91H334.709L334.665 89.7344C333.991 90.6953 333.001 91.1758 331.694 91.1758C330.599 91.1758 329.714 90.7363 329.04 89.8574C328.372 88.9727 328.038 87.7803 328.038 86.2803V86.1572ZM329.102 86.3418C329.102 87.5547 329.345 88.5127 329.831 89.2158C330.317 89.9131 331.003 90.2617 331.888 90.2617C333.183 90.2617 334.103 89.6904 334.647 88.5479V84.083C334.103 82.8467 333.188 82.2285 331.905 82.2285C331.021 82.2285 330.332 82.5771 329.84 83.2744C329.348 83.9658 329.102 84.9883 329.102 86.3418ZM337.882 86.1045C337.882 85.1904 338.058 84.3672 338.409 83.6348C338.767 82.9023 339.268 82.334 339.912 81.9297C340.562 81.5195 341.298 81.3145 342.118 81.3145C343.384 81.3145 344.409 81.7598 345.194 82.6504C345.979 83.5352 346.372 84.71 346.372 86.1748V86.3945C346.372 87.3145 346.193 88.1436 345.836 88.8818C345.484 89.6143 344.986 90.1797 344.342 90.5781C343.697 90.9766 342.962 91.1758 342.136 91.1758C340.876 91.1758 339.851 90.7334 339.06 89.8486C338.274 88.958 337.882 87.7803 337.882 86.3154V86.1045ZM338.937 86.3945C338.937 87.5312 339.229 88.4658 339.815 89.1982C340.407 89.9248 341.181 90.2881 342.136 90.2881C343.085 90.2881 343.853 89.9248 344.438 89.1982C345.03 88.4658 345.326 87.502 345.326 86.3066V86.1045C345.326 85.3779 345.191 84.7129 344.922 84.1094C344.652 83.5059 344.274 83.04 343.788 82.7119C343.302 82.3779 342.745 82.2109 342.118 82.2109C341.181 82.2109 340.416 82.5801 339.824 83.3184C339.232 84.0508 338.937 85.0117 338.937 86.2012V86.3945ZM349.554 81.4902L349.589 83.1162C349.946 82.5303 350.392 82.085 350.925 81.7803C351.458 81.4697 352.047 81.3145 352.691 81.3145C353.711 81.3145 354.47 81.6016 354.968 82.1758C355.466 82.75 355.718 83.6113 355.724 84.7598V91H354.678V84.751C354.672 83.9014 354.49 83.2686 354.133 82.8525C353.781 82.4365 353.216 82.2285 352.437 82.2285C351.786 82.2285 351.209 82.4336 350.705 82.8438C350.207 83.248 349.838 83.7959 349.598 84.4873V91H348.552V81.4902H349.554ZM363.581 91V82.3516H362.008V81.4902H363.581V80.3389C363.581 79.3662 363.827 78.6191 364.319 78.0977C364.817 77.5762 365.509 77.3154 366.394 77.3154C366.792 77.3154 367.164 77.3652 367.51 77.4648L367.431 78.3438C367.138 78.2734 366.818 78.2383 366.473 78.2383C365.893 78.2383 365.441 78.4199 365.119 78.7832C364.797 79.1406 364.636 79.6504 364.636 80.3125V81.4902H366.903V82.3516H364.636V91H363.581ZM368.204 86.1045C368.204 85.1904 368.38 84.3672 368.731 83.6348C369.089 82.9023 369.59 82.334 370.234 81.9297C370.885 81.5195 371.62 81.3145 372.44 81.3145C373.706 81.3145 374.731 81.7598 375.517 82.6504C376.302 83.5352 376.694 84.71 376.694 86.1748V86.3945C376.694 87.3145 376.516 88.1436 376.158 88.8818C375.807 89.6143 375.309 90.1797 374.664 90.5781C374.02 90.9766 373.284 91.1758 372.458 91.1758C371.198 91.1758 370.173 90.7334 369.382 89.8486C368.597 88.958 368.204 87.7803 368.204 86.3154V86.1045ZM369.259 86.3945C369.259 87.5312 369.552 88.4658 370.138 89.1982C370.729 89.9248 371.503 90.2881 372.458 90.2881C373.407 90.2881 374.175 89.9248 374.761 89.1982C375.353 88.4658 375.648 87.502 375.648 86.3066V86.1045C375.648 85.3779 375.514 84.7129 375.244 84.1094C374.975 83.5059 374.597 83.04 374.11 82.7119C373.624 82.3779 373.067 82.2109 372.44 82.2109C371.503 82.2109 370.738 82.5801 370.146 83.3184C369.555 84.0508 369.259 85.0117 369.259 86.2012V86.3945ZM383.269 82.3867C383.046 82.3457 382.809 82.3252 382.557 82.3252C381.9 82.3252 381.344 82.5098 380.887 82.8789C380.436 83.2422 380.113 83.7725 379.92 84.4697V91H378.874V81.4902H379.902L379.92 83.002C380.477 81.877 381.37 81.3145 382.601 81.3145C382.894 81.3145 383.125 81.3525 383.295 81.4287L383.269 82.3867ZM210.019 108.01C209.872 109.357 209.389 110.389 208.568 111.104C207.754 111.818 206.667 112.176 205.308 112.176C204.358 112.176 203.518 111.938 202.785 111.464C202.059 110.989 201.496 110.318 201.098 109.451C200.699 108.578 200.497 107.582 200.491 106.463V104.802C200.491 103.665 200.69 102.657 201.089 101.778C201.487 100.899 202.059 100.223 202.803 99.748C203.553 99.2676 204.414 99.0273 205.387 99.0273C206.758 99.0273 207.839 99.3994 208.63 100.144C209.427 100.882 209.89 101.904 210.019 103.211H208.929C208.659 101.037 207.479 99.9502 205.387 99.9502C204.227 99.9502 203.301 100.384 202.609 101.251C201.924 102.118 201.581 103.316 201.581 104.846V106.41C201.581 107.887 201.915 109.064 202.583 109.943C203.257 110.822 204.165 111.262 205.308 111.262C206.438 111.262 207.291 110.992 207.865 110.453C208.439 109.908 208.794 109.094 208.929 108.01H210.019ZM218.518 110.796C217.885 111.716 216.874 112.176 215.485 112.176C214.472 112.176 213.701 111.883 213.174 111.297C212.646 110.705 212.377 109.832 212.365 108.678V102.49H213.411V108.546C213.411 110.356 214.144 111.262 215.608 111.262C217.132 111.262 218.096 110.632 218.5 109.372V102.49H219.555V112H218.535L218.518 110.796ZM227.992 109.583C227.992 109.062 227.781 108.643 227.359 108.326C226.943 108.01 226.313 107.764 225.47 107.588C224.626 107.406 223.97 107.201 223.501 106.973C223.038 106.738 222.692 106.454 222.464 106.12C222.241 105.786 222.13 105.382 222.13 104.907C222.13 104.157 222.443 103.539 223.07 103.053C223.697 102.561 224.5 102.314 225.479 102.314C226.539 102.314 227.389 102.578 228.027 103.105C228.672 103.627 228.994 104.31 228.994 105.153H227.939C227.939 104.597 227.705 104.134 227.236 103.765C226.773 103.396 226.188 103.211 225.479 103.211C224.787 103.211 224.23 103.366 223.809 103.677C223.393 103.981 223.185 104.38 223.185 104.872C223.185 105.347 223.357 105.716 223.703 105.979C224.055 106.237 224.69 106.475 225.61 106.691C226.536 106.908 227.228 107.14 227.685 107.386C228.147 107.632 228.49 107.928 228.713 108.273C228.936 108.619 229.047 109.038 229.047 109.53C229.047 110.333 228.722 110.975 228.071 111.455C227.427 111.936 226.583 112.176 225.54 112.176C224.433 112.176 223.533 111.909 222.842 111.376C222.156 110.837 221.813 110.157 221.813 109.337H222.868C222.909 109.952 223.167 110.433 223.642 110.778C224.122 111.118 224.755 111.288 225.54 111.288C226.272 111.288 226.864 111.127 227.315 110.805C227.767 110.482 227.992 110.075 227.992 109.583ZM233.055 100.056V102.49H235.023V103.352H233.055V109.688C233.055 110.216 233.148 110.608 233.336 110.866C233.529 111.124 233.849 111.253 234.294 111.253C234.47 111.253 234.754 111.224 235.146 111.165L235.19 112.026C234.915 112.126 234.54 112.176 234.065 112.176C233.345 112.176 232.82 111.968 232.492 111.552C232.164 111.13 232 110.512 232 109.697V103.352H230.251V102.49H232V100.056H233.055ZM236.447 107.104C236.447 106.19 236.623 105.367 236.975 104.635C237.332 103.902 237.833 103.334 238.478 102.93C239.128 102.52 239.863 102.314 240.684 102.314C241.949 102.314 242.975 102.76 243.76 103.65C244.545 104.535 244.938 105.71 244.938 107.175V107.395C244.938 108.314 244.759 109.144 244.401 109.882C244.05 110.614 243.552 111.18 242.907 111.578C242.263 111.977 241.527 112.176 240.701 112.176C239.441 112.176 238.416 111.733 237.625 110.849C236.84 109.958 236.447 108.78 236.447 107.315V107.104ZM237.502 107.395C237.502 108.531 237.795 109.466 238.381 110.198C238.973 110.925 239.746 111.288 240.701 111.288C241.65 111.288 242.418 110.925 243.004 110.198C243.596 109.466 243.892 108.502 243.892 107.307V107.104C243.892 106.378 243.757 105.713 243.487 105.109C243.218 104.506 242.84 104.04 242.354 103.712C241.867 103.378 241.311 103.211 240.684 103.211C239.746 103.211 238.981 103.58 238.39 104.318C237.798 105.051 237.502 106.012 237.502 107.201V107.395ZM248.075 102.49L248.11 104.037C248.462 103.463 248.901 103.032 249.429 102.745C249.956 102.458 250.542 102.314 251.187 102.314C252.687 102.314 253.639 102.93 254.043 104.16C254.383 103.568 254.837 103.114 255.405 102.798C255.974 102.476 256.601 102.314 257.286 102.314C259.325 102.314 260.365 103.428 260.406 105.654V112H259.352V105.733C259.346 104.884 259.161 104.254 258.798 103.844C258.44 103.434 257.854 103.229 257.04 103.229C256.284 103.24 255.646 103.486 255.124 103.967C254.603 104.441 254.312 105.021 254.254 105.707V112H253.199V105.654C253.193 104.84 253 104.233 252.619 103.835C252.244 103.431 251.664 103.229 250.879 103.229C250.217 103.229 249.648 103.419 249.174 103.8C248.699 104.175 248.348 104.734 248.119 105.479V112H247.064V102.49H248.075ZM268.211 112V103.352H266.638V102.49H268.211V101.339C268.211 100.366 268.457 99.6191 268.949 99.0977C269.447 98.5762 270.139 98.3154 271.023 98.3154C271.422 98.3154 271.794 98.3652 272.14 98.4648L272.061 99.3438C271.768 99.2734 271.448 99.2383 271.103 99.2383C270.522 99.2383 270.071 99.4199 269.749 99.7832C269.427 100.141 269.266 100.65 269.266 101.312V102.49H271.533V103.352H269.266V112H268.211ZM272.834 107.104C272.834 106.19 273.01 105.367 273.361 104.635C273.719 103.902 274.22 103.334 274.864 102.93C275.515 102.52 276.25 102.314 277.07 102.314C278.336 102.314 279.361 102.76 280.146 103.65C280.932 104.535 281.324 105.71 281.324 107.175V107.395C281.324 108.314 281.146 109.144 280.788 109.882C280.437 110.614 279.938 111.18 279.294 111.578C278.649 111.977 277.914 112.176 277.088 112.176C275.828 112.176 274.803 111.733 274.012 110.849C273.227 109.958 272.834 108.78 272.834 107.315V107.104ZM273.889 107.395C273.889 108.531 274.182 109.466 274.768 110.198C275.359 110.925 276.133 111.288 277.088 111.288C278.037 111.288 278.805 110.925 279.391 110.198C279.982 109.466 280.278 108.502 280.278 107.307V107.104C280.278 106.378 280.144 105.713 279.874 105.109C279.604 104.506 279.227 104.04 278.74 103.712C278.254 103.378 277.697 103.211 277.07 103.211C276.133 103.211 275.368 103.58 274.776 104.318C274.185 105.051 273.889 106.012 273.889 107.201V107.395ZM282.924 107.104C282.924 106.19 283.1 105.367 283.451 104.635C283.809 103.902 284.31 103.334 284.954 102.93C285.604 102.52 286.34 102.314 287.16 102.314C288.426 102.314 289.451 102.76 290.236 103.65C291.021 104.535 291.414 105.71 291.414 107.175V107.395C291.414 108.314 291.235 109.144 290.878 109.882C290.526 110.614 290.028 111.18 289.384 111.578C288.739 111.977 288.004 112.176 287.178 112.176C285.918 112.176 284.893 111.733 284.102 110.849C283.316 109.958 282.924 108.78 282.924 107.315V107.104ZM283.979 107.395C283.979 108.531 284.271 109.466 284.857 110.198C285.449 110.925 286.223 111.288 287.178 111.288C288.127 111.288 288.895 110.925 289.48 110.198C290.072 109.466 290.368 108.502 290.368 107.307V107.104C290.368 106.378 290.233 105.713 289.964 105.109C289.694 104.506 289.316 104.04 288.83 103.712C288.344 103.378 287.787 103.211 287.16 103.211C286.223 103.211 285.458 103.58 284.866 104.318C284.274 105.051 283.979 106.012 283.979 107.201V107.395ZM293.172 107.157C293.172 105.681 293.5 104.506 294.156 103.633C294.818 102.754 295.715 102.314 296.846 102.314C298.129 102.314 299.107 102.821 299.781 103.835V98.5H300.827V112H299.843L299.799 110.734C299.125 111.695 298.135 112.176 296.828 112.176C295.732 112.176 294.848 111.736 294.174 110.857C293.506 109.973 293.172 108.78 293.172 107.28V107.157ZM294.235 107.342C294.235 108.555 294.479 109.513 294.965 110.216C295.451 110.913 296.137 111.262 297.021 111.262C298.316 111.262 299.236 110.69 299.781 109.548V105.083C299.236 103.847 298.322 103.229 297.039 103.229C296.154 103.229 295.466 103.577 294.974 104.274C294.481 104.966 294.235 105.988 294.235 107.342ZM309.291 109.583C309.291 109.062 309.08 108.643 308.658 108.326C308.242 108.01 307.612 107.764 306.769 107.588C305.925 107.406 305.269 107.201 304.8 106.973C304.337 106.738 303.991 106.454 303.763 106.12C303.54 105.786 303.429 105.382 303.429 104.907C303.429 104.157 303.742 103.539 304.369 103.053C304.996 102.561 305.799 102.314 306.777 102.314C307.838 102.314 308.688 102.578 309.326 103.105C309.971 103.627 310.293 104.31 310.293 105.153H309.238C309.238 104.597 309.004 104.134 308.535 103.765C308.072 103.396 307.486 103.211 306.777 103.211C306.086 103.211 305.529 103.366 305.107 103.677C304.691 103.981 304.483 104.38 304.483 104.872C304.483 105.347 304.656 105.716 305.002 105.979C305.354 106.237 305.989 106.475 306.909 106.691C307.835 106.908 308.526 107.14 308.983 107.386C309.446 107.632 309.789 107.928 310.012 108.273C310.234 108.619 310.346 109.038 310.346 109.53C310.346 110.333 310.021 110.975 309.37 111.455C308.726 111.936 307.882 112.176 306.839 112.176C305.731 112.176 304.832 111.909 304.141 111.376C303.455 110.837 303.112 110.157 303.112 109.337H304.167C304.208 109.952 304.466 110.433 304.94 110.778C305.421 111.118 306.054 111.288 306.839 111.288C307.571 111.288 308.163 111.127 308.614 110.805C309.065 110.482 309.291 110.075 309.291 109.583ZM323.099 112C322.993 111.701 322.926 111.259 322.896 110.673C322.527 111.153 322.056 111.525 321.481 111.789C320.913 112.047 320.31 112.176 319.671 112.176C318.757 112.176 318.016 111.921 317.447 111.411C316.885 110.901 316.604 110.257 316.604 109.478C316.604 108.552 316.987 107.819 317.755 107.28C318.528 106.741 319.604 106.472 320.98 106.472H322.888V105.391C322.888 104.711 322.677 104.178 322.255 103.791C321.839 103.398 321.229 103.202 320.427 103.202C319.694 103.202 319.088 103.39 318.607 103.765C318.127 104.14 317.887 104.591 317.887 105.118L316.832 105.109C316.832 104.354 317.184 103.7 317.887 103.149C318.59 102.593 319.454 102.314 320.479 102.314C321.54 102.314 322.375 102.581 322.984 103.114C323.6 103.642 323.916 104.38 323.934 105.329V109.829C323.934 110.749 324.03 111.438 324.224 111.895V112H323.099ZM319.794 111.244C320.497 111.244 321.124 111.074 321.675 110.734C322.231 110.395 322.636 109.94 322.888 109.372V107.28H321.007C319.958 107.292 319.138 107.485 318.546 107.86C317.954 108.229 317.658 108.739 317.658 109.39C317.658 109.923 317.854 110.365 318.247 110.717C318.646 111.068 319.161 111.244 319.794 111.244ZM327.748 102.49L327.783 104.116C328.141 103.53 328.586 103.085 329.119 102.78C329.652 102.47 330.241 102.314 330.886 102.314C331.905 102.314 332.664 102.602 333.162 103.176C333.66 103.75 333.912 104.611 333.918 105.76V112H332.872V105.751C332.866 104.901 332.685 104.269 332.327 103.853C331.976 103.437 331.41 103.229 330.631 103.229C329.98 103.229 329.403 103.434 328.899 103.844C328.401 104.248 328.032 104.796 327.792 105.487V112H326.746V102.49H327.748ZM336.221 107.157C336.221 105.681 336.549 104.506 337.205 103.633C337.867 102.754 338.764 102.314 339.895 102.314C341.178 102.314 342.156 102.821 342.83 103.835V98.5H343.876V112H342.892L342.848 110.734C342.174 111.695 341.184 112.176 339.877 112.176C338.781 112.176 337.896 111.736 337.223 110.857C336.555 109.973 336.221 108.78 336.221 107.28V107.157ZM337.284 107.342C337.284 108.555 337.527 109.513 338.014 110.216C338.5 110.913 339.186 111.262 340.07 111.262C341.365 111.262 342.285 110.69 342.83 109.548V105.083C342.285 103.847 341.371 103.229 340.088 103.229C339.203 103.229 338.515 103.577 338.022 104.274C337.53 104.966 337.284 105.988 337.284 107.342ZM358.668 107.342C358.668 108.824 358.34 110.002 357.684 110.875C357.027 111.742 356.148 112.176 355.047 112.176C353.746 112.176 352.75 111.719 352.059 110.805V115.656H351.013V102.49H351.988L352.041 103.835C352.727 102.821 353.72 102.314 355.021 102.314C356.157 102.314 357.048 102.745 357.692 103.606C358.343 104.468 358.668 105.663 358.668 107.192V107.342ZM357.613 107.157C357.613 105.944 357.364 104.986 356.866 104.283C356.368 103.58 355.674 103.229 354.783 103.229C354.139 103.229 353.585 103.384 353.122 103.694C352.659 104.005 352.305 104.456 352.059 105.048V109.609C352.311 110.154 352.671 110.57 353.14 110.857C353.608 111.145 354.162 111.288 354.801 111.288C355.686 111.288 356.374 110.937 356.866 110.233C357.364 109.524 357.613 108.499 357.613 107.157ZM360.426 107.104C360.426 106.19 360.602 105.367 360.953 104.635C361.311 103.902 361.812 103.334 362.456 102.93C363.106 102.52 363.842 102.314 364.662 102.314C365.928 102.314 366.953 102.76 367.738 103.65C368.523 104.535 368.916 105.71 368.916 107.175V107.395C368.916 108.314 368.737 109.144 368.38 109.882C368.028 110.614 367.53 111.18 366.886 111.578C366.241 111.977 365.506 112.176 364.68 112.176C363.42 112.176 362.395 111.733 361.604 110.849C360.818 109.958 360.426 108.78 360.426 107.315V107.104ZM361.48 107.395C361.48 108.531 361.773 109.466 362.359 110.198C362.951 110.925 363.725 111.288 364.68 111.288C365.629 111.288 366.396 110.925 366.982 110.198C367.574 109.466 367.87 108.502 367.87 107.307V107.104C367.87 106.378 367.735 105.713 367.466 105.109C367.196 104.506 366.818 104.04 366.332 103.712C365.846 103.378 365.289 103.211 364.662 103.211C363.725 103.211 362.96 103.58 362.368 104.318C361.776 105.051 361.48 106.012 361.48 107.201V107.395ZM372.73 100.056V102.49H374.699V103.352H372.73V109.688C372.73 110.216 372.824 110.608 373.012 110.866C373.205 111.124 373.524 111.253 373.97 111.253C374.146 111.253 374.43 111.224 374.822 111.165L374.866 112.026C374.591 112.126 374.216 112.176 373.741 112.176C373.021 112.176 372.496 111.968 372.168 111.552C371.84 111.13 371.676 110.512 371.676 109.697V103.352H369.927V102.49H371.676V100.056H372.73ZM378.057 112H377.002V102.49H378.057V112ZM376.817 99.7393C376.817 99.54 376.882 99.373 377.011 99.2383C377.14 99.0977 377.315 99.0273 377.538 99.0273C377.761 99.0273 377.937 99.0977 378.065 99.2383C378.2 99.373 378.268 99.54 378.268 99.7393C378.268 99.9385 378.2 100.105 378.065 100.24C377.937 100.375 377.761 100.442 377.538 100.442C377.315 100.442 377.14 100.375 377.011 100.24C376.882 100.105 376.817 99.9385 376.817 99.7393ZM380.342 107.104C380.342 106.19 380.518 105.367 380.869 104.635C381.227 103.902 381.728 103.334 382.372 102.93C383.022 102.52 383.758 102.314 384.578 102.314C385.844 102.314 386.869 102.76 387.654 103.65C388.439 104.535 388.832 105.71 388.832 107.175V107.395C388.832 108.314 388.653 109.144 388.296 109.882C387.944 110.614 387.446 111.18 386.802 111.578C386.157 111.977 385.422 112.176 384.596 112.176C383.336 112.176 382.311 111.733 381.52 110.849C380.734 109.958 380.342 108.78 380.342 107.315V107.104ZM381.396 107.395C381.396 108.531 381.689 109.466 382.275 110.198C382.867 110.925 383.641 111.288 384.596 111.288C385.545 111.288 386.312 110.925 386.898 110.198C387.49 109.466 387.786 108.502 387.786 107.307V107.104C387.786 106.378 387.651 105.713 387.382 105.109C387.112 104.506 386.734 104.04 386.248 103.712C385.762 103.378 385.205 103.211 384.578 103.211C383.641 103.211 382.876 103.58 382.284 104.318C381.692 105.051 381.396 106.012 381.396 107.201V107.395ZM392.014 102.49L392.049 104.116C392.406 103.53 392.852 103.085 393.385 102.78C393.918 102.47 394.507 102.314 395.151 102.314C396.171 102.314 396.93 102.602 397.428 103.176C397.926 103.75 398.178 104.611 398.184 105.76V112H397.138V105.751C397.132 104.901 396.95 104.269 396.593 103.853C396.241 103.437 395.676 103.229 394.896 103.229C394.246 103.229 393.669 103.434 393.165 103.844C392.667 104.248 392.298 104.796 392.058 105.487V112H391.012V102.49H392.014ZM406.604 109.583C406.604 109.062 406.393 108.643 405.971 108.326C405.555 108.01 404.925 107.764 404.081 107.588C403.237 107.406 402.581 107.201 402.112 106.973C401.649 106.738 401.304 106.454 401.075 106.12C400.853 105.786 400.741 105.382 400.741 104.907C400.741 104.157 401.055 103.539 401.682 103.053C402.309 102.561 403.111 102.314 404.09 102.314C405.15 102.314 406 102.578 406.639 103.105C407.283 103.627 407.605 104.31 407.605 105.153H406.551C406.551 104.597 406.316 104.134 405.848 103.765C405.385 103.396 404.799 103.211 404.09 103.211C403.398 103.211 402.842 103.366 402.42 103.677C402.004 103.981 401.796 104.38 401.796 104.872C401.796 105.347 401.969 105.716 402.314 105.979C402.666 106.237 403.302 106.475 404.222 106.691C405.147 106.908 405.839 107.14 406.296 107.386C406.759 107.632 407.102 107.928 407.324 108.273C407.547 108.619 407.658 109.038 407.658 109.53C407.658 110.333 407.333 110.975 406.683 111.455C406.038 111.936 405.194 112.176 404.151 112.176C403.044 112.176 402.145 111.909 401.453 111.376C400.768 110.837 400.425 110.157 400.425 109.337H401.479C401.521 109.952 401.778 110.433 402.253 110.778C402.733 111.118 403.366 111.288 404.151 111.288C404.884 111.288 405.476 111.127 405.927 110.805C406.378 110.482 406.604 110.075 406.604 109.583Z" fill="black"/>
<path d="M213.055 48.0547H199.555V62H192.523V27.875H214.742V33.5703H199.555V42.3828H213.055V48.0547ZM216.805 49.0859C216.805 46.5703 217.289 44.3281 218.258 42.3594C219.227 40.3906 220.617 38.8672 222.43 37.7891C224.258 36.7109 226.375 36.1719 228.781 36.1719C232.203 36.1719 234.992 37.2188 237.148 39.3125C239.32 41.4062 240.531 44.25 240.781 47.8438L240.828 49.5781C240.828 53.4688 239.742 56.5938 237.57 58.9531C235.398 61.2969 232.484 62.4688 228.828 62.4688C225.172 62.4688 222.25 61.2969 220.062 58.9531C217.891 56.6094 216.805 53.4219 216.805 49.3906V49.0859ZM223.578 49.5781C223.578 51.9844 224.031 53.8281 224.938 55.1094C225.844 56.375 227.141 57.0078 228.828 57.0078C230.469 57.0078 231.75 56.3828 232.672 55.1328C233.594 53.8672 234.055 51.8516 234.055 49.0859C234.055 46.7266 233.594 44.8984 232.672 43.6016C231.75 42.3047 230.453 41.6562 228.781 41.6562C227.125 41.6562 225.844 42.3047 224.938 43.6016C224.031 44.8828 223.578 46.875 223.578 49.5781ZM243.945 49.0859C243.945 46.5703 244.43 44.3281 245.398 42.3594C246.367 40.3906 247.758 38.8672 249.57 37.7891C251.398 36.7109 253.516 36.1719 255.922 36.1719C259.344 36.1719 262.133 37.2188 264.289 39.3125C266.461 41.4062 267.672 44.25 267.922 47.8438L267.969 49.5781C267.969 53.4688 266.883 56.5938 264.711 58.9531C262.539 61.2969 259.625 62.4688 255.969 62.4688C252.312 62.4688 249.391 61.2969 247.203 58.9531C245.031 56.6094 243.945 53.4219 243.945 49.3906V49.0859ZM250.719 49.5781C250.719 51.9844 251.172 53.8281 252.078 55.1094C252.984 56.375 254.281 57.0078 255.969 57.0078C257.609 57.0078 258.891 56.3828 259.812 55.1328C260.734 53.8672 261.195 51.8516 261.195 49.0859C261.195 46.7266 260.734 44.8984 259.812 43.6016C258.891 42.3047 257.594 41.6562 255.922 41.6562C254.266 41.6562 252.984 42.3047 252.078 43.6016C251.172 44.8828 250.719 46.875 250.719 49.5781ZM271.086 49.1328C271.086 45.1797 271.969 42.0312 273.734 39.6875C275.516 37.3438 277.945 36.1719 281.023 36.1719C283.492 36.1719 285.531 37.0938 287.141 38.9375V26H293.938V62H287.82L287.492 59.3047C285.805 61.4141 283.633 62.4688 280.977 62.4688C277.992 62.4688 275.594 61.2969 273.781 58.9531C271.984 56.5938 271.086 53.3203 271.086 49.1328ZM277.859 49.625C277.859 52 278.273 53.8203 279.102 55.0859C279.93 56.3516 281.133 56.9844 282.711 56.9844C284.805 56.9844 286.281 56.1016 287.141 54.3359V44.3281C286.297 42.5625 284.836 41.6797 282.758 41.6797C279.492 41.6797 277.859 44.3281 277.859 49.625ZM308.82 27.875L317.586 52.625L326.305 27.875H335.539V62H328.484V52.6719L329.188 36.5703L319.977 62H315.148L305.961 36.5938L306.664 52.6719V62H299.633V27.875H308.82ZM340.18 49.0859C340.18 46.5703 340.664 44.3281 341.633 42.3594C342.602 40.3906 343.992 38.8672 345.805 37.7891C347.633 36.7109 349.75 36.1719 352.156 36.1719C355.578 36.1719 358.367 37.2188 360.523 39.3125C362.695 41.4062 363.906 44.25 364.156 47.8438L364.203 49.5781C364.203 53.4688 363.117 56.5938 360.945 58.9531C358.773 61.2969 355.859 62.4688 352.203 62.4688C348.547 62.4688 345.625 61.2969 343.438 58.9531C341.266 56.6094 340.18 53.4219 340.18 49.3906V49.0859ZM346.953 49.5781C346.953 51.9844 347.406 53.8281 348.312 55.1094C349.219 56.375 350.516 57.0078 352.203 57.0078C353.844 57.0078 355.125 56.3828 356.047 55.1328C356.969 53.8672 357.43 51.8516 357.43 49.0859C357.43 46.7266 356.969 44.8984 356.047 43.6016C355.125 42.3047 353.828 41.6562 352.156 41.6562C350.5 41.6562 349.219 42.3047 348.312 43.6016C347.406 44.8828 346.953 46.875 346.953 49.5781ZM367.32 49.1328C367.32 45.1797 368.203 42.0312 369.969 39.6875C371.75 37.3438 374.18 36.1719 377.258 36.1719C379.727 36.1719 381.766 37.0938 383.375 38.9375V26H390.172V62H384.055L383.727 59.3047C382.039 61.4141 379.867 62.4688 377.211 62.4688C374.227 62.4688 371.828 61.2969 370.016 58.9531C368.219 56.5938 367.32 53.3203 367.32 49.1328ZM374.094 49.625C374.094 52 374.508 53.8203 375.336 55.0859C376.164 56.3516 377.367 56.9844 378.945 56.9844C381.039 56.9844 382.516 56.1016 383.375 54.3359V44.3281C382.531 42.5625 381.07 41.6797 378.992 41.6797C375.727 41.6797 374.094 44.3281 374.094 49.625ZM409.156 54.9922C409.156 54.1641 408.742 53.5156 407.914 53.0469C407.102 52.5625 405.789 52.1328 403.977 51.7578C397.945 50.4922 394.93 47.9297 394.93 44.0703C394.93 41.8203 395.859 39.9453 397.719 38.4453C399.594 36.9297 402.039 36.1719 405.055 36.1719C408.273 36.1719 410.844 36.9297 412.766 38.4453C414.703 39.9609 415.672 41.9297 415.672 44.3516H408.898C408.898 43.3828 408.586 42.5859 407.961 41.9609C407.336 41.3203 406.359 41 405.031 41C403.891 41 403.008 41.2578 402.383 41.7734C401.758 42.2891 401.445 42.9453 401.445 43.7422C401.445 44.4922 401.797 45.1016 402.5 45.5703C403.219 46.0234 404.422 46.4219 406.109 46.7656C407.797 47.0938 409.219 47.4688 410.375 47.8906C413.953 49.2031 415.742 51.4766 415.742 54.7109C415.742 57.0234 414.75 58.8984 412.766 60.3359C410.781 61.7578 408.219 62.4688 405.078 62.4688C402.953 62.4688 401.062 62.0938 399.406 61.3438C397.766 60.5781 396.477 59.5391 395.539 58.2266C394.602 56.8984 394.133 55.4688 394.133 53.9375H400.555C400.617 55.1406 401.062 56.0625 401.891 56.7031C402.719 57.3438 403.828 57.6641 405.219 57.6641C406.516 57.6641 407.492 57.4219 408.148 56.9375C408.82 56.4375 409.156 55.7891 409.156 54.9922Z" fill="#F3DC08"/>
<rect width="128" height="128" fill="white"/>
<rect x="25.6" y="110.08" width="74.24" height="7.68" fill="#F3DC08"/>
<rect x="25.6" y="43.52" width="74.24" height="7.68" fill="#F3DC08"/>
<rect x="17.92" y="51.2" width="89.6" height="58.88" fill="#F3DC08"/>
<rect x="40.96" y="117.76" width="46.08" height="7.68" fill="#F3DC08"/>
<rect x="40.96" y="35.84" width="46.08" height="7.68" fill="#F3DC08"/>
<rect x="58.88" y="15.36" width="10.24" height="20.48" fill="#5C3200"/>
<rect x="64" y="5.12" width="10.24" height="10.24" fill="#5C3200"/>
</svg>
